<?xml version="1.0" encoding="UTF-8"?>
<svg width="10px" height="10px" viewBox="0 0 10 10" version="1.1" xmlns="http://www.w3.org/2000/svg" xmlns:xlink="http://www.w3.org/1999/xlink">
    <title>Vector备份</title>
    <g id="页面-1" stroke="none" stroke-width="1" fill="none" fill-rule="evenodd">
        <g id="更多产品" transform="translate(-326, -472)" fill="#FFFFFF">
            <g id="编组" transform="translate(16, 449)">
                <g id="编组-4" transform="translate(263, 16)">
                    <g id="Vector备份" transform="translate(47, 7)">
                        <path d="M5,10 C7.76142383,10 10,7.76142383 10,5 C10,2.23857617 7.76142383,0 5,0 C2.23857617,0 0,2.23857617 0,5 C0,7.76142383 2.23857617,10 5,10 Z M2.1464467,4.6464463 C1.95118443,4.84170857 1.95118443,5.15829157 2.1464467,5.35355384 L4.14644607,7.35355384 C4.34170834,7.5488158 4.65829134,7.5488158 4.85355361,7.35355384 C5.04881557,7.15829157 5.04881557,6.84170857 4.85355361,6.6464463 L3.70710675,5.5 L7.83333317,5.5 C8.10947555,5.5 8.33333317,5.27614251 8.33333317,5 C8.33333317,4.72385763 8.10947555,4.5 7.83333317,4.5 L3.70710675,4.5 L4.85355361,3.35355352 C5.04881557,3.15829139 5.04881557,2.84170875 4.85355361,2.64644662 C4.65829134,2.45118446 4.34170834,2.45118446 4.14644607,2.64644662 L2.1464467,4.6464463 Z" transform="translate(5, 5) scale(-1, 1) translate(-5, -5)"></path>
                    </g>
                </g>
            </g>
        </g>
    </g>
</svg>