<svg width="31" height="31" viewBox="0 0 31 31" fill="none" xmlns="http://www.w3.org/2000/svg">
<path d="M28.4165 15.636C28.4165 18.1907 27.6589 20.6882 26.2395 22.8124C24.8202 24.9366 22.8028 26.5922 20.4424 27.5699C18.0821 28.5476 15.4849 28.8034 12.9792 28.305C10.4735 27.8066 8.17191 26.5763 6.3654 24.7698C4.5589 22.9633 3.32865 20.6617 2.83024 18.156C2.33182 15.6503 2.58763 13.0531 3.5653 10.6928C4.54297 8.33245 6.19861 6.31505 8.32283 4.89569C10.4471 3.47633 12.9445 2.71875 15.4992 2.71875C17.1956 2.71875 18.8753 3.05286 20.4424 3.70201C22.0096 4.35116 23.4336 5.30264 24.6331 6.50211C25.8326 7.70159 26.784 9.12557 27.4332 10.6928C28.0823 12.2599 28.4165 13.9396 28.4165 15.636ZM24.2951 20.7004C24.2942 20.5636 24.2394 20.4327 24.1426 20.3362C24.0457 20.2396 23.9146 20.1852 23.7779 20.1848H23.1709V19.5583C23.1701 19.4218 23.1155 19.2912 23.019 19.1947C22.9225 19.0981 22.7918 19.0436 22.6554 19.0427H21.758V11.7708H23.1709C23.32 11.7715 23.4648 11.7207 23.5807 11.6269C23.6966 11.5331 23.7765 11.4021 23.8069 11.2562C23.8372 11.1102 23.8162 10.9582 23.7472 10.826C23.6783 10.6938 23.5658 10.5895 23.4287 10.5308L15.757 7.20559C15.6759 7.17043 15.5885 7.15229 15.5001 7.15229C15.4117 7.15229 15.3242 7.17043 15.2431 7.20559L7.56977 10.5308C7.43272 10.5895 7.32019 10.6938 7.25127 10.826C7.18234 10.9582 7.16127 11.1102 7.19162 11.2562C7.22196 11.4021 7.30187 11.5331 7.41778 11.6269C7.53368 11.7207 7.67846 11.7715 7.82756 11.7708H9.23888V19.0427H8.34314C8.20667 19.0436 8.07602 19.0981 7.97952 19.1947C7.88301 19.2912 7.82842 19.4218 7.82756 19.5583V20.1848H7.22062C7.08386 20.1852 6.9528 20.2396 6.85594 20.3362C6.75908 20.4327 6.70427 20.5636 6.70341 20.7004V21.3253H24.2951V20.7004ZM10.5311 12.9781H12.9817V19.0427H10.5311V12.9781ZM20.0579 10.4785H10.9406L15.4992 8.50433L20.0579 10.4785ZM14.2739 12.9781H16.7246V19.0427H14.2756L14.2739 12.9781ZM18.0168 12.9781H20.4674V19.0427H18.0168V12.9781Z" fill="#0087F0"/>
</svg>
