<?xml version="1.0" encoding="UTF-8"?>
<svg width="20px" height="20px" viewBox="0 0 20 20" version="1.1" xmlns="http://www.w3.org/2000/svg" xmlns:xlink="http://www.w3.org/1999/xlink">
    <title>切片</title>
    <g id="页面-1" stroke="none" stroke-width="1" fill="none" fill-rule="evenodd">
        <g id="选择银行卡" transform="translate(-309.000000, -272.000000)">
            <g id="编组-7" transform="translate(309.000000, 272.000000)">
                <rect id="矩形" fill="#0087F0" x="0" y="0" width="20" height="20" rx="10"></rect>
                <g id="编组-18" transform="translate(4.438576, 5.293081)" fill="#FFFFFF">
                    <path d="M3.08937712,3.20053441 C3.73174635,3.20053441 4.25416475,3.71809387 4.26016711,4.36043506 L4.30092461,8.72209074 C4.30685498,9.3567281 3.79718726,9.87601085 3.1625499,9.88194122 C3.1589707,9.88197467 3.15539137,9.88199139 3.15181201,9.88199139 C2.50944278,9.88199139 1.98702438,9.36443193 1.98102203,8.72209074 L1.94026452,4.36043506 C1.93433415,3.7257977 2.44400187,3.20651495 3.07863923,3.20058458 C3.08221843,3.20055113 3.08579777,3.20053441 3.08937712,3.20053441 Z" id="矩形" transform="translate(3.120595, 6.541263) rotate(-42.000000) translate(-3.120595, -6.541263) "></path>
                    <path d="M7.31028463,-0.543279293 C7.95621454,-0.543279293 8.48496267,-0.0294689216 8.5034686,0.616195843 L8.74725168,9.12169101 C8.76686603,9.80602784 8.24785564,10.3862062 7.56556787,10.4426422 C6.9357002,10.4947423 6.38285615,10.026369 6.33075612,9.39650138 C6.32872401,9.37193391 6.32748624,9.34730719 6.32704478,9.32265978 L6.1711062,0.616485981 C6.15983731,-0.0126648935 6.66072963,-0.531827688 7.2898805,-0.543096576 C7.29668119,-0.543218385 7.30348284,-0.543279293 7.31028463,-0.543279293 Z" id="矩形" transform="translate(7.466281, 5.000000) scale(-1, 1) rotate(-42.000000) translate(-7.466281, -5.000000) "></path>
                </g>
            </g>
        </g>
    </g>
</svg>