<?xml version="1.0" encoding="UTF-8"?>
<svg width="28px" height="28px" viewBox="0 0 28 28" version="1.1" xmlns="http://www.w3.org/2000/svg" xmlns:xlink="http://www.w3.org/1999/xlink">
    <title>编组 8</title>
    <g id="页面-1" stroke="none" stroke-width="1" fill="none" fill-rule="evenodd">
        <g id="验证码" transform="translate(-307, -379)">
            <g id="编组-8" transform="translate(307, 379)">
                <circle id="椭圆形" fill="#F7F7F7" cx="14" cy="14" r="14"></circle>
                <g id="编组-10" transform="translate(7.5, 6.5)" fill-rule="nonzero">
                    <g id="编组-7" transform="translate(3, 0)">
                        <polygon id="矩形" fill="#0087F0" opacity="0" transform="translate(5, 7.5) scale(-1, 1) rotate(-90) translate(-5, -7.5)" points="-2.5 2.5 12.5 2.5 12.5 12.5 -2.5 12.5"></polygon>
                        <path d="M0.65828502,4.67190977 C0.556996317,4.78155681 0.5,4.93099082 0.5,5.0869044 C0.5,5.24281797 0.556996317,5.39225198 0.65828502,5.50189902 L5.12554788,10.3267815 C5.22574207,10.4376264 5.36229313,10.5 5.50476515,10.5 C5.64723717,10.5 5.78378824,10.4376264 5.88398243,10.3267815 L10.3429108,5.50189902 C10.4783921,5.35363572 10.5313036,5.13753725 10.481714,4.93500582 C10.4321244,4.73247438 10.2875676,4.57427933 10.1024967,4.52001119 C9.91742585,4.46574306 9.71995757,4.52364647 9.58447629,4.67190977 L5.50059793,9.05899577 L1.40838513,4.67190977 C1.20057284,4.44703122 0.866097303,4.44703122 0.65828502,4.67190977 Z" id="路径" stroke="#B9B9B9" stroke-width="2" fill="#B9B9B9" transform="translate(5.5, 7.5) scale(-1, 1) rotate(-90) translate(-5.5, -7.5)"></path>
                    </g>
                    <g id="编组-7" transform="translate(5, 7.5) scale(-1, 1) translate(-5, -7.5)">
                        <polygon id="矩形" fill="#0087F0" opacity="0" transform="translate(5, 7.5) scale(-1, 1) rotate(-90) translate(-5, -7.5)" points="-2.5 2.5 12.5 2.5 12.5 12.5 -2.5 12.5"></polygon>
                        <path d="M0.65828502,4.67190977 C0.556996317,4.78155681 0.5,4.93099082 0.5,5.0869044 C0.5,5.24281797 0.556996317,5.39225198 0.65828502,5.50189902 L5.12554788,10.3267815 C5.22574207,10.4376264 5.36229313,10.5 5.50476515,10.5 C5.64723717,10.5 5.78378824,10.4376264 5.88398243,10.3267815 L10.3429108,5.50189902 C10.4783921,5.35363572 10.5313036,5.13753725 10.481714,4.93500582 C10.4321244,4.73247438 10.2875676,4.57427933 10.1024967,4.52001119 C9.91742585,4.46574306 9.71995757,4.52364647 9.58447629,4.67190977 L5.50059793,9.05899577 L1.40838513,4.67190977 C1.20057284,4.44703122 0.866097303,4.44703122 0.65828502,4.67190977 Z" id="路径" stroke="#B9B9B9" stroke-width="2" fill="#B9B9B9" transform="translate(5.5, 7.5) scale(-1, 1) rotate(-90) translate(-5.5, -7.5)"></path>
                    </g>
                </g>
            </g>
        </g>
    </g>
</svg>