<svg width="16" height="16" viewBox="0 0 16 16" fill="none" xmlns="http://www.w3.org/2000/svg">
<g clip-path="url(#clip0_1160_10799)">
<rect width="16" height="16" rx="8" fill="#333333"/>
<path d="M9.06654 11.6L7.56654 11.7333C7.56654 11.7333 8.29988 9.1 8.83321 7.33333C8.90627 7.13347 8.93165 6.9193 8.90733 6.7079C8.88301 6.49649 8.80965 6.29369 8.69311 6.11564C8.57657 5.93759 8.42006 5.78921 8.23605 5.68233C8.05204 5.57545 7.84561 5.51301 7.63321 5.5C7.46344 5.49921 7.29543 5.53446 7.14028 5.60341C6.98514 5.67236 6.84639 5.77345 6.73321 5.9L5.39988 7C5.36323 7.03437 5.33865 7.07966 5.32981 7.12913C5.32097 7.17859 5.32833 7.22959 5.35081 7.27453C5.37328 7.31948 5.40966 7.35597 5.45453 7.37857C5.49941 7.40118 5.55039 7.40869 5.59988 7.4L7.09988 7.26666L5.83321 11.6667C5.76015 11.8665 5.73477 12.0807 5.75909 12.2921C5.78341 12.5035 5.85677 12.7063 5.97331 12.8844C6.08985 13.0624 6.24636 13.2108 6.43037 13.3177C6.61438 13.4245 6.82081 13.487 7.03321 13.5C7.20299 13.5008 7.37099 13.4655 7.52614 13.3966C7.68128 13.3276 7.82003 13.2265 7.93321 13.1L9.26654 12C9.30319 11.9656 9.32777 11.9203 9.33661 11.8709C9.34545 11.8214 9.33809 11.7704 9.31561 11.7255C9.29314 11.6805 9.25676 11.644 9.21189 11.6214C9.16701 11.5988 9.11603 11.5913 9.06654 11.6Z" fill="white"/>
<path d="M8.66699 4.66666C9.21928 4.66666 9.66699 4.21895 9.66699 3.66666C9.66699 3.11438 9.21928 2.66666 8.66699 2.66666C8.11471 2.66666 7.66699 3.11438 7.66699 3.66666C7.66699 4.21895 8.11471 4.66666 8.66699 4.66666Z" fill="white"/>
</g>
<defs>
<clipPath id="clip0_1160_10799">
<rect width="16" height="16" rx="8" fill="white"/>
</clipPath>
</defs>
</svg>
